<svg width="15" height="15" viewBox="0 0 15 15" fill="none" xmlns="http://www.w3.org/2000/svg">
<path d="M7.33333 5.33333C8.43333 5.33333 9.33333 6.23333 9.33333 7.33333C9.33333 8.43333 8.43333 9.33333 7.33333 9.33333C6.23333 9.33333 5.33333 8.43333 5.33333 7.33333C5.33333 6.23333 6.23333 5.33333 7.33333 5.33333ZM7.33333 4C5.49333 4 4 5.49333 4 7.33333C4 9.17333 5.49333 10.6667 7.33333 10.6667C9.17333 10.6667 10.6667 9.17333 10.6667 7.33333C10.6667 5.49333 9.17333 4 7.33333 4ZM0.666667 8H2C2.36667 8 2.66667 7.7 2.66667 7.33333C2.66667 6.96667 2.36667 6.66667 2 6.66667H0.666667C0.3 6.66667 0 6.96667 0 7.33333C0 7.7 0.3 8 0.666667 8ZM12.6667 8H14C14.3667 8 14.6667 7.7 14.6667 7.33333C14.6667 6.96667 14.3667 6.66667 14 6.66667H12.6667C12.3 6.66667 12 6.96667 12 7.33333C12 7.7 12.3 8 12.6667 8ZM6.66667 0.666667V2C6.66667 2.36667 6.96667 2.66667 7.33333 2.66667C7.7 2.66667 8 2.36667 8 2V0.666667C8 0.3 7.7 0 7.33333 0C6.96667 0 6.66667 0.3 6.66667 0.666667ZM6.66667 12.6667V14C6.66667 14.3667 6.96667 14.6667 7.33333 14.6667C7.7 14.6667 8 14.3667 8 14V12.6667C8 12.3 7.7 12 7.33333 12C6.96667 12 6.66667 12.3 6.66667 12.6667ZM3.32667 2.38667C3.06667 2.12667 2.64 2.12667 2.38667 2.38667C2.12667 2.64667 2.12667 3.07333 2.38667 3.32667L3.09333 4.03333C3.35333 4.29333 3.78 4.29333 4.03333 4.03333C4.28667 3.77333 4.29333 3.34667 4.03333 3.09333L3.32667 2.38667ZM11.5733 10.6333C11.3133 10.3733 10.8867 10.3733 10.6333 10.6333C10.3733 10.8933 10.3733 11.32 10.6333 11.5733L11.34 12.28C11.6 12.54 12.0267 12.54 12.28 12.28C12.54 12.02 12.54 11.5933 12.28 11.34L11.5733 10.6333ZM12.28 3.32667C12.54 3.06667 12.54 2.64 12.28 2.38667C12.02 2.12667 11.5933 2.12667 11.34 2.38667L10.6333 3.09333C10.3733 3.35333 10.3733 3.78 10.6333 4.03333C10.8933 4.28667 11.32 4.29333 11.5733 4.03333L12.28 3.32667ZM4.03333 11.5733C4.29333 11.3133 4.29333 10.8867 4.03333 10.6333C3.77333 10.3733 3.34667 10.3733 3.09333 10.6333L2.38667 11.34C2.12667 11.6 2.12667 12.0267 2.38667 12.28C2.64667 12.5333 3.07333 12.54 3.32667 12.28L4.03333 11.5733Z" fill="#404040"/>
</svg>
